{"title":"Westbrick Murders-AC3-5,1-DVDRip[Eng]2010","uid":5434025,"size":1461492999,"categoryP":"video","categoryS":"movies","magnet":"?xt=urn:btih:10479e949423dbaf292ce6b5d53225d628e43d36&amp;dn=Westbrick+Murders-AC3-5%2C1-DVDRip%5BEng%5D2010&amp;tr=udp%3A%2F%2Ftracker.openbittorrent.com%3A80&amp;tr=udp%3A%2F%2Fopen.demonii.com%3A1337&amp;tr=udp%3A%2F%2Ftracker.coppersurfer.tk%3A6969&amp;tr=udp%3A%2F%2Fexodus.desync.com%3A6969","seeders":0,"leechers":1,"uploader":"FatFreddy31","files":-1,"time":1268526541,"description":" &lt;a href=&quot;http://www.imdb.com/title/tt0903036/&quot; rel=&quot;nofollow&quot; target=&quot;_NEW&quot;&gt;http://www.imdb.com/title/tt0903036/&lt;/a&gt;\n &lt;a href=&quot;\nhttp://www.westbrickmurders.com/&quot; rel=&quot;nofollow&quot; target=&quot;_NEW&quot;&gt;\nhttp://www.westbrickmurders.com/&lt;/a&gt;\n\nUser Rating: (awaiting 5 votes) \n\nAction,Crime,Drama,Thriller \n\nDirector:Shaun Rana\n\nCast:Daniell Edwards/Sami Darr/Anna BÃƒÂ¥rd/Eric Roberts, and others..\n\nPlot:\nThe town of Westbrick is a rough place to live in. It is here that the young rookie cop Matthew lives with his wife. Meanwhile, notorious serial killers Billy and Barbara embark on a killing spree in order to get notoriety. Matthew gets his first assignment with his much older partner William when he unfortunately crosses paths with Billy and Barbara. William gets killed in the line of duty by Billy and Barbara but that's not enough for them: they torture and brutally murder Matthew's wife. Things get even worse for young Matthew when he loses his job, being wrongfully blamed for William's death and now charged with murder. Matthew finds himself isolated; there is no reason to count on a corrupt legal system and \neven less of a chance of being found innocent. He goes on a rampage for vengeance and slowly turns into a mad psychopath just like Billy and Barbara. \n\nInfo:\n\nGeneral\nComplete name                    : Westbrick Murders-AC3-5,1-DVDRip[Eng]2010.avi\nFormat                           : AVI\nFormat/Info                      : Audio Video Interleave\nFile size                        : 1.36 GiB\nDuration                         : 1h 31mn\nOverall bit rate                 : 2 131 Kbps\nWriting application              : VirtualDubMod 1.5.4.1 (build 2178/release)\nWriting library                  : VirtualDubMod build 2178/release\n\nVideo\nID                               : 0\nFormat                           : MPEG-4 Visual\nFormat profile                   : Simple@L3\nFormat settings, BVOP            : No\nFormat settings, QPel            : No\nFormat settings, GMC             : No warppoints\nFormat settings, Matrix          : Default (H.263)\nCodec ID                         : XVID\nCodec ID/Hint                    : XviD\nDuration                         : 1h 31mn\nBit rate                         : 1 673 Kbps\nWidth                            : 640 pixels\nHeight                           : 352 pixels\nDisplay aspect ratio             : 16:9\nFrame rate                       : 25.000 fps\nResolution                       : 24 bits\nColorimetry                      : 4:2:0\nScan type                        : Progressive\nBits/(Pixel*Frame)               : 0.297\nStream size                      : 1.07 GiB (79%)\nWriting library                  : XviD 1.1.2 (UTC 2006-11-01)\n\nAudio\nID                               : 1\nFormat                           : AC-3\nFormat/Info                      : Audio Coding 3\nCodec ID                         : 2000\nDuration                         : 1h 31mn\nBit rate mode                    : Constant\nBit rate                         : 448 Kbps\nChannel(s)                       : 6 channels\nChannel positions                : Front: L C R, Surround: L R, LFE\nSampling rate                    : 48.0 KHz\nStream size                      : 293 MiB (21%)\nAlignment                        : Split accross interleaves\nInterleave, duration             : 40 ms (1.00 video frame)\nInterleave, preload duration     : 500 ms\n\nEnjoy...","torrent":{"xt":"urn:btih:10479e949423dbaf292ce6b5d53225d628e43d36","amp;dn":"Westbrick+Murders-AC3-5%2C1-DVDRip%5BEng%5D2010","amp;tr":["udp%3A%2F%2Ftracker.openbittorrent.com%3A80","udp%3A%2F%2Fopen.demonii.com%3A1337","udp%3A%2F%2Ftracker.coppersurfer.tk%3A6969","udp%3A%2F%2Fexodus.desync.com%3A6969"],"infoHash":"10479e949423dbaf292ce6b5d53225d628e43d36","infoHashBuffer":{"type":"Buffer","data":[16,71,158,148,148,35,219,175,41,44,230,181,213,50,37,214,40,228,61,54]},"announce":[],"urlList":[]}}